<svg xmlns="http://www.w3.org/2000/svg" version="1.1" xmlns:xlink="http://www.w3.org/1999/xlink" xmlns:svgjs="http://svgjs.com/svgjs" width="1440" height="560" preserveAspectRatio="none" viewBox="0 0 1440 560"><g mask="url(&quot;#SvgjsMask1191&quot;)" fill="none"><rect width="1440" height="560" x="0" y="0" fill="rgba(255, 255, 255, 1)"></rect><path d="M1488 560L0 560 L0 377.78Q42.76 300.54, 120 343.3Q154.05 257.35, 240 291.4Q315.57 246.97, 360 322.54Q411.45 302, 432 353.45Q470.44 271.89, 552 310.34Q601.21 239.55, 672 288.77Q732.94 277.71, 744 338.65Q787.46 310.11, 816 353.56Q830.72 296.28, 888 311Q912.09 263.09, 960 287.18Q1040.42 247.6, 1080 328.02Q1130.69 306.72, 1152 357.41Q1219.58 304.99, 1272 372.56Q1277.19 305.75, 1344 310.94Q1367.97 262.91, 1416 286.88Q1472.95 271.84, 1488 328.79z" fill="rgba(228, 234, 245, 1)"></path><path d="M1464 560L0 560 L0 422.7Q18.47 369.17, 72 387.65Q154.96 350.61, 192 433.57Q217.94 387.51, 264 413.46Q297.31 326.77, 384 360.09Q463.74 319.83, 504 399.57Q534.96 358.53, 576 389.49Q626.91 368.4, 648 419.31Q698.83 350.14, 768 400.97Q818.83 379.8, 840 430.63Q867.21 337.84, 960 365.04Q1034.94 319.99, 1080 394.93Q1142.26 385.19, 1152 447.45Q1176.08 351.53, 1272 375.61Q1300.84 332.45, 1344 361.29Q1445.54 342.83, 1464 444.37z" fill="rgba(194, 217, 255, 1)"></path><path d="M1464 560L0 560 L0 473.64Q80.88 434.52, 120 515.4Q149.56 472.96, 192 502.53Q226.38 416.9, 312 451.28Q336.02 403.3, 384 427.32Q476.85 400.17, 504 493.02Q571.63 440.64, 624 508.27Q662.9 427.17, 744 466.08Q768.28 418.37, 816 442.65Q869.42 424.07, 888 477.5Q954.04 423.54, 1008 489.58Q1053.02 414.6, 1128 459.62Q1153.67 413.3, 1200 438.97Q1276.1 395.07, 1320 471.17Q1377.35 456.52, 1392 513.87Q1421.34 471.21, 1464 500.55z" fill="#356cb1"></path><path d="M1512 560L0 560 L0 530.04Q61.36 519.4, 72 580.76Q100.11 488.87, 192 516.98Q275.77 480.75, 312 564.52Q339.29 519.81, 384 547.1Q435.63 478.73, 504 530.36Q588.31 494.67, 624 578.98Q670.97 505.95, 744 552.93Q782.5 471.43, 864 509.94Q893.75 467.69, 936 497.45Q987.13 476.59, 1008 527.72Q1035.71 483.43, 1080 511.14Q1164.99 476.13, 1200 561.12Q1272.56 513.68, 1320 586.24Q1339.79 486.03, 1440 505.83Q1482.94 476.77, 1512 519.71z" fill="white"></path></g><defs><mask id="SvgjsMask1191"><rect width="1440" height="560" fill="#ffffff"></rect></mask></defs></svg>